<?xml version="1.0" encoding="UTF-8"?>
<!-- Generator: Adobe Illustrator 15.0.2, SVG Export Plug-In . SVG Version: 6.00 Build 0)  -->
<!DOCTYPE svg PUBLIC "-//W3C//DTD SVG 1.1//EN" "http://www.w3.org/Graphics/SVG/1.1/DTD/svg11.dtd">
<svg xmlns="http://www.w3.org/2000/svg" xmlns:xlink="http://www.w3.org/1999/xlink" version="1.1" id="Layer_1" x="0px" y="0px" width="512px" height="480.006px" viewBox="0 0 512 480.006" enable-background="new 0 0 512 480.006" xml:space="preserve">
<path d="M256,0c17.683,0,31.994,14.33,31.994,32c0,17.676-14.312,32-31.994,32c-17.67,0-32-14.324-32-32C224,14.33,238.33,0,256,0z   M480.006,96C497.676,96,512,110.33,512,128c0,17.676-14.324,32-31.994,32c-17.682,0-31.994-14.324-31.994-32  C448.012,110.33,462.324,96,480.006,96z M32,96c17.67,0,32,14.33,32,32c0,17.676-14.33,32-32,32c-17.676,0-32-14.324-32-32  C0,110.33,14.324,96,32,96z M128,271.997l48.003,160.006h160.006L384,271.997c-79.997,0-128-79.997-128-79.997  S208.003,271.997,128,271.997z M256,80.003c0,0,48.003,256.006,208.009,96l-96.006,304.003h-224  C106.669,384,47.997,176.003,47.997,176.003C208.003,336.009,256,80.003,256,80.003z M182.685,394.941l-9.114-24.304h164.053  l-9.114,24.304H182.685z" fill="#6600FF"/>
</svg>
